<?xml version="1.0" encoding="UTF-8"?>
<!DOCTYPE svg PUBLIC "-//W3C//DTD SVG 1.1//EN" "http://www.w3.org/Graphics/SVG/1.1/DTD/svg11.dtd">
<!-- Creator: CorelDRAW 2021 (64-Bit) -->
<svg xmlns="http://www.w3.org/2000/svg" xml:space="preserve" width="4.33412in" height="2.54746in" version="1.1" style="shape-rendering:geometricPrecision; text-rendering:geometricPrecision; image-rendering:optimizeQuality; fill-rule:evenodd; clip-rule:evenodd"
viewBox="0 0 4334.12 2547.46"
 xmlns:xlink="http://www.w3.org/1999/xlink"
 xmlns:xodm="http://www.corel.com/coreldraw/odm/2003">
 <defs>
  <style type="text/css">
   <![CDATA[
    .fil3 {fill:black}
    .fil1 {fill:#00A653}
    .fil2 {fill:#2F3192}
    .fil0 {fill:#F68221}
   ]]>
  </style>
 </defs>
 <g id="Layer_x0020_1">
  <metadata id="CorelCorpID_0Corel-Layer"/>
  <g id="_1647963023456">
   <path class="fil0" d="M353.81 104.87l0 1286.96c0,113.16 143.22,147.2 180.91,39.39 18.11,-51.8 9.26,-393.77 9.26,-463.95 0,-112.81 9.22,-189.98 45.67,-268.33 27.69,-59.5 94.06,-141.36 166.61,-147.39l0 782.8c0,50.87 -4.04,77.64 16.09,112.16 39.35,67.49 119.83,63.7 161.63,3.65 21.46,-30.84 16.87,-62.11 16.87,-111.39l0 -778.37c22.26,11.78 44.09,21.71 63.08,38.64 19.5,17.39 36.23,32.88 51.12,55.02 108.1,160.78 80.4,371.61 80.4,556.45 0,65.3 -11.13,131.83 41.43,170.86 40.04,29.73 96.94,19.59 124.94,-17.76 19.56,-26.09 24.07,-46.54 23.83,-91.15 -0.41,-75.15 -0.03,-150.42 -0.03,-225.58 0,-365.68 119.34,-392.46 429.93,-472.27 88.27,-22.68 176.42,-49.44 260.6,-79.94 129.56,-46.93 21.31,-45.65 240.96,27.59 114.94,38.33 233.85,68.06 351.05,100.05 206.52,56.37 256.51,185.52 256.51,420.15 0,75.17 0.28,150.4 -0.01,225.56 -0.26,66.8 21.74,132.67 97.31,132.67 16.94,0 38.69,-10.45 48.87,-17.46 54.04,-37.24 44,-102.33 44,-168.28 0,-135.47 -11.33,-275.75 15.11,-409.46 14.34,-72.54 46.93,-135.52 94.83,-188.22 22.91,-25.2 54.87,-41.11 84.65,-56.87l0 773.95c0,46.76 -4.76,83.01 15.04,113.21 9.61,14.67 18.65,24.19 32.76,33.58 46.48,30.93 101.72,11.48 129.06,-31.85 20.89,-33.1 17.73,-62.46 17.73,-114.94l0 -782.8c71.74,5.97 137.16,86.06 165.17,144.41 36.63,76.32 47.11,155.8 47.11,266.89 0,70.25 -7.96,408.56 7.14,461.65 8.2,28.87 28.26,53.44 54.63,64.78 35.82,15.4 77.98,3.33 100.73,-23.4 15.6,-18.33 27.67,-41.59 27.67,-74.05l0 -1286.96c0,-31.94 -11.03,-53.15 -25.7,-71.6 -39.91,-50.2 -100.73,-39.26 -139.13,4.07 -17.85,20.15 -25.49,52.72 -25.5,89.49 -0.01,76.7 0.15,153.42 0.15,230.13 -32.63,-21.85 -53.71,-39.11 -94.06,-56.3 -29.11,-12.41 -80.67,-31.31 -118.22,-32.15l0 -159.21c0,-31.64 -11.61,-57.15 -27.47,-74.25 -38.48,-41.47 -90.83,-48.14 -134.2,-7.82 -54.89,51.04 -32.93,184.59 -32.93,258.97 -66.74,5.56 -178.52,103.81 -218.57,161.77 -11.54,16.7 -21.42,30.59 -30.62,48.98l-36.89 78.1c-4.97,12.86 -4.99,18.07 -14.65,25.15 -5.18,-62.26 -92.66,-141.31 -138.92,-175.08 -18.25,-13.32 -32.67,-17.85 -51.02,-28.59 -86.45,-50.61 -398.81,-117.98 -543.05,-173.41 -35.03,-13.46 -20.06,-14.3 -45.85,-33.76 -39.26,-29.62 -106.61,-31.66 -146.91,-1.89 -14.05,10.38 -10.45,7.73 -20.65,19.15 -10.77,12.06 -6.15,8.18 -24.52,15.29 -21.15,8.19 -38.26,12.96 -58.91,20.7 -18.52,6.94 -38.95,14.94 -59.06,20.55l-123.78 35.43c-110.67,30 -258.87,57.91 -352.97,124.67 -47.19,33.48 -136.24,114.03 -141.48,176.94 -14.25,-10.44 -17.78,-33.5 -24.56,-50.63 -16.34,-41.28 -42.19,-85.86 -71.59,-118.58 -31.66,-35.23 -59.32,-67.21 -100.16,-94.43 -21.67,-14.44 -76.15,-48.01 -104.43,-50.36 0,-78.06 20.22,-205.8 -30.66,-256.81 -66.47,-66.64 -163.93,-8.72 -163.93,79.91l0 159.21c-37.55,0.83 -89.11,19.74 -118.22,32.15 -40.35,17.19 -61.43,34.45 -94.06,56.3 0,-75.2 -0.25,-150.45 0.1,-225.65 0.17,-35.93 -5.64,-68.36 -21.39,-89.17 -60.74,-80.24 -168.88,-35.98 -168.88,62.74z"/>
   <path class="fil1" d="M1344.46 1705.83c-6.74,-28.93 -20.93,-42.3 -26.54,-66.34l-39.8 0 0 309.58 92.87 0c0,-57.33 -8.99,-234.98 27.54,-264.46 32.96,-26.6 69.75,4.74 69.75,74.3l0 190.17 92.88 0c0,-66.9 -12.62,-235.43 34.63,-266.31 35.96,-23.5 71.5,11.07 71.5,71.72 0,64.69 -0.91,81.51 -14.33,144.87 -9.19,43.39 -29.53,86.72 -29.89,102.79 12.93,3.01 20.48,7.72 30.96,13.27 90.53,-60.62 193.72,-384.76 -17.69,-384.76 -19.62,0 -42.8,10.65 -55.75,19.44 -13.29,9.02 -23.83,27.19 -37.13,42.48 -15.07,-64.71 -113.27,-81.13 -162.53,-38.7 -27.78,23.93 -20.28,40.09 -36.48,51.97z"/>
   <path class="fil1" d="M2512.02 1909.27c-71.76,0 -75.19,-63.45 -75.19,-128.26 0,-22.55 4.57,-46.48 11.72,-63.46 24.65,-58.52 129.8,-68.2 129.8,76.73 0,48.17 -20.41,114.98 -66.34,114.98zm-172.48 -119.41c0,132.53 117.21,196.37 200.78,156.56 21.96,-10.46 21.64,-17.32 38.04,-28.3 0,190 -155.19,149.41 -172.48,75.18 -10.52,5.05 -27.14,10.32 -39.8,13.27 3,36.09 38.78,58.54 66.3,70.8 126.86,56.52 238.85,-39.24 238.85,-145.98l0 -291.89 -39.8 0c-5.7,24.48 -25.26,37.44 -30.96,61.91 -13.17,-9.65 -8.25,-11.85 -18.93,-25.3 -50.96,-64.24 -140.36,-58.68 -198.99,1.98 -26.6,27.52 -43.02,74.27 -43.02,111.77z"/>
   <path class="fil2" d="M3546.9 1807.55c0,-59.95 3.29,-128.25 75.19,-128.25 80.32,0 98.21,224.46 -1.08,232.26 -52.69,4.14 -74.11,-50.12 -74.11,-104.01zm141.52 -137.1c-91.04,-95.98 -238.82,-6.24 -238.82,119.41 0,154.41 159.43,218.83 239.98,124.99 11.65,-13.57 7.93,-18.15 20.96,-27.69 5.65,21.18 25.85,40.01 30.96,61.92l39.8 0 0 -424.57 -92.87 0 0 145.94z"/>
   <path class="fil2" d="M4174.91 1909.27c-71.76,0 -75.19,-63.45 -75.19,-128.26 0,-29.21 7.23,-68.85 27.58,-87.4 28.15,-25.65 113.94,-35.89 113.94,100.67 0,48.17 -20.41,114.98 -66.34,114.98zm-172.48 -119.41c0,132.53 117.21,196.37 200.78,156.56 21.96,-10.46 21.64,-17.32 38.04,-28.3l0 30.96 92.87 0 0 -309.58 -39.8 0c-5.7,24.48 -25.26,37.44 -30.96,61.91 -12.22,-8.95 -58.53,-110.55 -175.57,-56.17 -21.83,10.15 -26.77,16.74 -42.34,32.85 -26.6,27.52 -43.02,74.27 -43.02,111.77z"/>
   <path class="fil2" d="M3166.56 1705.83c-0.78,-2.93 -29.72,-66.34 -44.22,-66.34l-30.96 0 0 309.58 92.88 0c0,-82.65 -13.56,-222.51 45.39,-264.25 35.07,-24.83 87.29,1.41 87.29,74.08 0,70.95 -2.88,125.87 -27.12,194 -4.76,13.39 -13.59,29.75 -17.1,44.81 12.63,6.68 19.74,14.04 35.38,17.69 47.63,-31.89 101.72,-157.52 101.72,-225.55l0 -35.38c0,-122.47 -150.17,-167.7 -221.86,-75.92 -8.79,11.25 -10.21,19.09 -21.38,27.27z"/>
   <path class="fil1" d="M256.51 1705.83c-0.78,-2.93 -29.72,-66.34 -44.22,-66.34l-30.96 0 0 309.58 92.87 0c0,-82.65 -13.56,-222.51 45.39,-264.25 35.07,-24.83 87.29,1.41 87.29,74.08 0,70.95 -2.89,125.87 -27.13,194 -4.76,13.39 -13.59,29.75 -17.1,44.81 12.63,6.68 19.74,14.04 35.38,17.69 47.63,-31.89 101.72,-157.52 101.72,-225.55l0 -35.38c0,-122.47 -150.17,-167.7 -221.87,-75.92 -8.79,11.25 -10.21,19.09 -21.38,27.27z"/>
   <path class="fil1" d="M2056.5 1705.83c-0.78,-2.93 -29.72,-66.34 -44.23,-66.34l-30.96 0 0 309.58 92.87 0c0,-82.65 -13.55,-222.51 45.39,-264.25 19.12,-13.54 47.28,-9.9 63.5,4.99 47.57,43.69 15.02,211.49 -3.33,263.09 -4.76,13.39 -13.59,29.75 -17.1,44.81 12.63,6.68 19.74,14.04 35.38,17.69 7.25,-4.85 30.89,-32.87 37.3,-42.31 77.34,-113.9 116.97,-342.46 -63.84,-342.46 -77.44,0 -97.07,62.06 -114.98,75.19z"/>
   <path class="fil1" d="M1052.57 1918.12c-113.5,0 -99.58,-247.67 -8.84,-247.67 121.73,0 103.83,247.67 8.84,247.67zm-176.9 -128.26c0,189.86 264.35,220.79 331.76,75.25 56.93,-122.91 -38.58,-234.46 -159.28,-234.46 -90.33,0 -172.48,69.91 -172.48,159.21z"/>
   <path class="fil1" d="M539.56 1794.29c0,49.55 21.55,90.36 47.41,116.22 83.85,83.86 237.48,45.97 257.75,-41.04 -20.75,-1.73 -21.2,-8.33 -44.23,-8.85 -8.53,36.62 -54.74,63.41 -97.85,53.93 -93.17,-20.46 -88.24,-218.25 0.84,-239.7 22.22,-5.35 46.64,-1.5 65.4,9.52 23.62,13.88 24.73,24.43 36.04,47.99 17.04,-3.97 24.8,-9.78 39.8,-13.27 -4.24,-50.89 -77.22,-88.45 -141.52,-88.45 -93.59,0 -163.63,70.2 -163.63,163.64z"/>
   <polygon class="fil1" points="-0,1949.07 106.14,1949.07 106.14,1564.31 -0,1564.31 "/>
   <polygon class="fil2" points="2910.05,1949.07 3016.19,1949.07 3016.19,1564.31 2910.05,1564.31 "/>
   <polygon class="fil2" points="3852.06,1949.07 3944.93,1949.07 3944.93,1639.5 3852.06,1639.5 "/>
   <polygon class="fil1" points="1817.68,1949.07 1910.55,1949.07 1910.55,1639.5 1817.68,1639.5 "/>
   <path class="fil3" d="M2790.64 2466.52c-54.5,0 -7.31,-112.91 -2.68,-117.67 71.7,-73.65 78.49,117.67 2.68,117.67zm-229.97 -141.52l0 13.27c29.31,-2.44 31.16,-19.98 48.07,45.18 9.25,35.66 -2.81,30.83 -25.96,65.39 -43.69,-20.96 -65.2,30.96 -17.69,30.96 20.32,0 38.67,-42.52 53.07,-53.07 18.1,37.72 -1.28,53.07 48.65,53.07 16.06,0 15.51,-5.25 30.96,-8.85l0 -13.27c-29.16,2.43 -34.69,15.35 -51.51,-41.74 -5.98,-20.28 -6.4,-22.37 3.34,-37.08 7.47,-11.3 14.46,-21.03 21.64,-31.75 42.61,20.44 41.72,-24.9 75.19,-8.85 8.26,17.23 -12.99,85.69 -18.06,110.2 -3.77,18.26 -8.88,35.65 -12.39,53.94 -5.28,27.53 -6.08,32.39 -35.89,34.87l0 8.85c36.69,0 81.69,6.42 92.87,-8.85l-26.39 -5.09c-0.15,-27.21 3.57,-39.22 8.7,-61.25 70.44,37.28 123.83,-41.18 123.83,-75.18 0,-42.42 0.96,-79.61 -53.07,-79.61 -20.81,0 -31.69,13.71 -44.23,22.11 -2.41,-28.91 -28.45,-25.42 -48.41,-17.45 -9.47,3.79 -11.53,6.28 -17.93,13.03 -11.79,-44.17 -49.03,-3.78 -66.29,22.16l-13.31 17.64c-7.22,-86.83 -57.5,-50.12 -75.18,-48.65z"/>
   <path class="fil3" d="M2410.3 2276.35l-44.22 181.32c-18.44,8.85 -22.43,0.02 -35.38,17.69l190.17 0c0.3,-13.34 13.25,-57.09 17.69,-66.34 -18.52,0.41 -14.63,0.34 -23.74,11.63 -26.48,32.79 -19.64,41.44 -82.4,41.44 -13.49,0 -17.85,-4.25 -26.54,-8.85 2.21,-26.59 15.48,-57.44 17.69,-84.03 23.46,0 26.12,0.2 44.23,4.42 18.09,37.71 -9.34,34.68 22.11,35.38 2.49,-29.95 15.2,-58.5 17.69,-88.45 -39.29,3.27 5.55,35.38 -79.61,35.38 2.41,-28.99 16.98,-56.48 17.69,-88.45 53.47,0 80.02,-8.43 84.03,39.8l17.69 0c0,-25.35 7.06,-31.63 8.84,-53.07l-172.48 0c3.6,13.49 0.76,6.27 9.42,12.69l17.11 9.42z"/>
   <path class="fil3" d="M2153.79 2462.09c-50.97,0 -23.96,-132.68 30.96,-132.68 51.56,0 13.26,106.15 -0.96,118.45 -5.34,4.62 -22,14.23 -30,14.23zm48.65 -221.13l0 8.85c13.56,1.13 21.26,4.19 30.96,8.84 -0.26,11.87 -9.65,54.37 -13.27,61.92 -28.87,-2.4 -72.85,-18.82 -105.48,31.61 -28.87,44.61 -43.24,127.6 34.72,127.6 17.28,0 32.62,-14.34 44.22,-22.11 3.28,39.4 45.36,17.13 61.92,13.27l0 -13.27c-20.25,4.72 -10.71,4.72 -30.96,0 0,-19.24 42.89,-209.12 48.65,-221.13 -46.44,0 -50.09,3.92 -70.76,4.42z"/>
   <path class="fil3" d="M840.29 2307.3c0,31.14 8.85,48.47 8.85,79.61l-61.92 0c10.93,-16.33 41.24,-70.94 53.07,-79.61zm-150.37 159.21l88.45 0c-10.72,-2.5 -17.75,-4.63 -26.54,-8.85 1.28,-15.36 20.41,-57.49 35.38,-57.49l66.34 0c1.21,54.28 29.57,61.67 -26.54,66.34l0 8.85c17.7,0 35.45,-0.14 53.15,0.07 23.72,0.29 34.1,4.8 44.15,-8.92 -37.96,-8.84 -26.26,-13.29 -39.8,-92.87l-17.69 -119.41c-23.19,0.52 -21.18,5.99 -47.24,50.06l-74.76 119.83c-16.92,26.15 -21.15,34.53 -54.91,42.39z"/>
   <path class="fil3" d="M1782.3 2462.09c-53.16,0 -19.78,-132.68 30.96,-132.68 46.54,0 17.8,65.21 12.5,87.69 -3.42,14.52 -2.16,20.52 -13.38,30.84 -4.69,4.31 -22.66,14.15 -30.08,14.15zm-61.92 -44.23c0,56.64 37.28,81.45 92.87,44.23 33.14,22.19 11.26,22.7 70.76,8.84l0 -13.27c-37.03,8.87 -37.81,9.77 -18.61,-71.69 4.81,-20.44 13.72,-44.3 14.19,-65.41 -15.96,0.35 -18.78,5.12 -33.51,2.6 -18.73,-3.2 -9.19,-7.02 -37.25,-7.02 -48.93,0 -88.45,52.56 -88.45,101.72z"/>
   <path class="fil3" d="M1901.7 2338.26c31.55,-2.62 42.52,-14.26 25.69,52.22 -5.19,20.5 -13.13,67.93 -21.26,84.89l35.38 0 20.98 -98.43c10.47,-43.21 63.05,-58.9 63.05,-20.98 0,45.31 -51.01,123.83 4.43,123.83 21.43,0 39.35,-3.85 44.22,-22.11 -24.7,2.06 -9.33,6.07 -35.38,0 0,-63.43 63.03,-141.52 -22.11,-141.52 -23.33,0 -27.26,16.4 -48.65,22.11 -2.38,-28.61 -28.45,-25.61 -48.54,-17.58 -15.28,6.11 -10.64,4.05 -17.8,17.58z"/>
   <path class="fil3" d="M3025.04 2431.13c0,-27.13 1.19,-46.13 11.48,-68.12 23.55,-50.35 72.55,-40.5 72.55,6.21 0,105.49 -84.03,120.74 -84.03,61.91zm-35.38 -13.27c0,102.78 154.79,71.93 154.79,-39.8 0,-73.53 -90.71,-80.39 -131.55,-29.83 -12.95,16.03 -23.24,41.81 -23.24,69.63z"/>
   <path class="fil3" d="M1530.21 2400.18c5.5,-66.15 70.76,-90.09 70.76,-53.07 0,18.59 -9.8,31.7 -23.24,38.67 -17.26,8.96 -33.33,7.59 -47.52,14.4zm-35.38 22.11c0,91.77 118.65,55.46 125.83,19.57 5.14,-25.64 -17.97,-1.45 -22.86,3.48 -24.07,24.28 -67.59,30.37 -67.59,-31.9 119.04,-2.65 122.8,-97.3 66.34,-97.3 -31.65,0 -55.72,1.46 -79.79,35.19 -12.02,16.85 -21.93,41.7 -21.93,70.95z"/>
   <path class="fil3" d="M3339.04 2400.18c5.5,-66.15 70.76,-90.09 70.76,-53.07 0,18.59 -9.8,31.7 -23.24,38.67 -17.26,8.96 -33.33,7.59 -47.52,14.4zm-35.38 22.11c0,91.77 118.64,55.46 125.83,19.57 7.6,-37.94 -23.3,20.23 -59.5,20.23 -28.33,0 -30.96,-28.74 -30.96,-48.65 119.04,-2.65 122.8,-97.3 66.34,-97.3 -31.65,0 -55.72,1.46 -79.79,35.19 -12.02,16.85 -21.93,41.7 -21.93,70.95z"/>
   <path class="fil3" d="M1322.35 2324.99l0 13.27c10.38,-0.86 30.96,-10.2 30.96,4.43 0,34.55 -33.44,97.89 -9.59,124.57 33.67,37.67 133.42,-3 133.42,-124.57 0,-37.9 -27.22,-25.04 -39.8,-22.11 0,28.2 39.33,82.84 -14.85,126.68 -35.24,28.51 -55.91,3.06 -55.91,-2.85 0,-21.68 5,-33.4 9.74,-52.18 13.19,-52.33 15.51,-39.22 7.95,-71.65 -39.02,-9.09 -26.57,-3.81 -61.91,4.42z"/>
   <path class="fil3" d="M2918.89 2240.96l0 8.85c31.48,7.33 27.93,10.63 19.59,41.45 -11.41,42.13 -41.33,147.74 -32.85,184.1 28.35,6.6 51.29,10.74 66.33,-17.69 -47.49,3.95 -46.58,31.64 -1.76,-165.39 4.8,-21.11 10.6,-32.36 10.6,-55.74l-61.92 4.42z"/>
   <path class="fil2" d="M3847.63 1564.31c0,38.42 48.51,70.15 84.94,40.71 28.82,-23.3 25.05,-89.35 -36.29,-89.35 -25.57,0 -48.65,25.46 -48.65,48.65z"/>
   <path class="fil1" d="M1813.25 1564.31c0,38.42 48.51,70.15 84.94,40.71 28.82,-23.3 25.05,-89.35 -36.29,-89.35 -25.56,0 -48.65,25.46 -48.65,48.65z"/>
   <path class="fil3" d="M937.59 2338.26c27.19,-2.26 42.71,-18.4 26.54,48.65 -5.36,22.21 -17.7,65.25 -17.7,88.46l30.96 0c1.97,-23.68 13.03,-58.48 18.02,-83.7 8.54,-43.19 14.75,-40.06 48.32,-57.82 -7.91,33.94 -9.65,35.38 26.53,35.38 3.25,-13.93 26.6,-53.07 -17.69,-53.07 -23.88,0 -34.26,16.9 -48.65,26.54 -0.73,-32.65 -25.54,-31.19 -48.54,-22 -15.28,6.11 -10.64,4.05 -17.8,17.58z"/>
   <path class="fil3" d="M1083.53 2338.26c27.19,-2.26 42.7,-18.4 26.54,48.65 -5.36,22.21 -17.7,65.25 -17.7,88.46l30.96 0c1.97,-23.68 13.03,-58.48 18.02,-83.7 8.54,-43.19 14.75,-40.06 48.32,-57.82 -7.91,33.94 -9.64,35.38 26.54,35.38 3.24,-13.93 26.6,-53.07 -17.69,-53.07 -23.87,0 -34.26,16.9 -48.65,26.54 -0.72,-32.65 -25.54,-31.19 -48.54,-22 -15.28,6.11 -10.64,4.05 -17.8,17.58z"/>
   <path class="fil3" d="M3157.71 2338.26c14.52,-1.21 27.15,-10.55 33.25,5.91 5.05,13.61 -24.41,95.43 -24.41,131.2l30.96 0c1.97,-23.68 13.04,-58.48 18.02,-83.7 8.54,-43.19 14.75,-40.06 48.32,-57.82 -7.91,33.94 -9.65,35.38 26.53,35.38 3.24,-13.93 26.6,-53.07 -17.69,-53.07 -23.88,0 -34.26,16.9 -48.65,26.54 -0.73,-32.65 -25.54,-31.19 -48.54,-22 -15.28,6.11 -10.64,4.05 -17.8,17.58z"/>
   <path class="fil3" d="M1229.47 2338.26c40.22,-3.35 40.22,-10.08 23,58.39 -5.49,21.84 -36.68,108.78 38.8,78.6 15.28,-6.11 10.64,-4.04 17.8,-17.58 -24.7,2.06 -9.33,6.07 -35.38,0 0,-68.21 58.11,-141.52 -8.85,-141.52 -16.41,0 -31.06,5.93 -35.38,22.11z"/>
   <path class="fil3" d="M3555.74 2439.98c-6.79,28.36 -6.25,8.55 0,35.38 61.74,14.38 40.75,-39.8 22.11,-39.8 -6.97,0 -16.76,2.34 -22.11,4.42z"/>
   <path class="fil3" d="M3723.8 2439.98c-6.79,28.36 -6.25,8.55 0,35.38 61.74,14.38 40.75,-39.8 22.11,-39.8 -6.97,0 -16.76,2.34 -22.11,4.42z"/>
   <path class="fil3" d="M3467.3 2439.98c-6.79,28.36 -6.25,8.55 0,35.38 61.74,14.38 40.75,-39.8 22.11,-39.8 -6.96,0 -16.76,2.34 -22.11,4.42z"/>
   <path class="fil3" d="M3639.78 2439.98c-6.79,28.36 -6.25,8.55 0,35.38 61.74,14.38 40.75,-39.8 22.11,-39.8 -6.96,0 -16.76,2.34 -22.11,4.42z"/>
   <path class="fil3" d="M1278.12 2254.23c0,27.31 7.68,26.54 30.96,26.54 29.77,-56.25 -30.96,-52.54 -30.96,-26.54z"/>
  </g>
 </g>
</svg>
