<?xml version="1.0" standalone="no"?>
<!DOCTYPE svg PUBLIC "-//W3C//DTD SVG 20010904//EN"
 "http://www.w3.org/TR/2001/REC-SVG-20010904/DTD/svg10.dtd">
<svg version="1.0" xmlns="http://www.w3.org/2000/svg"
 width="318.000000pt" height="318.000000pt" viewBox="0 0 318.000000 318.000000"
 preserveAspectRatio="xMidYMid meet">
<metadata>
Created by potrace 1.14, written by Peter Selinger 2001-2017
</metadata>
<g transform="translate(0.000000,318.000000) scale(0.100000,-0.100000)"
fill="#000000" stroke="none">
<path d="M105 2581 c-3 -6 -14 -8 -25 -6 -12 2 -20 -2 -20 -10 0 -7 -7 -16
-16 -19 -8 -3 -13 -10 -9 -15 3 -5 2 -12 -3 -14 -4 -3 -7 -275 -7 -605 1 -649
-1 -618 55 -647 21 -11 30 -11 40 -2 10 9 11 9 6 0 -12 -22 4 -14 34 17 17 17
30 41 31 53 0 12 2 137 4 277 4 271 5 280 15 280 4 0 7 6 7 14 0 20 41 105 61
125 26 27 82 63 82 54 0 -4 5 -1 10 7 12 19 12 33 13 -407 0 -196 5 -353 9
-353 5 0 7 -4 3 -10 -9 -14 17 -50 37 -50 9 0 19 -4 22 -9 4 -5 12 -8 19 -6
40 10 57 19 57 30 0 7 6 15 12 17 10 4 13 91 13 386 0 269 3 383 11 386 13 5
72 -47 101 -89 19 -28 36 -71 50 -126 3 -13 7 -120 8 -237 2 -146 6 -221 15
-237 14 -26 50 -45 76 -40 11 2 24 4 30 4 7 1 20 13 30 29 15 23 18 52 19 217
2 124 7 206 15 235 8 25 13 48 12 53 -1 4 3 7 8 7 6 0 10 5 10 10 0 17 72 90
81 84 5 -3 9 -2 9 3 0 8 51 34 78 40 6 2 18 4 25 6 6 1 18 6 25 10 6 5 12 5
12 1 0 -3 7 -1 15 6 8 7 15 10 15 7 0 -3 15 -1 32 4 18 5 46 12 63 15 16 3 32
8 35 12 3 4 16 9 29 10 29 5 138 39 154 49 7 4 14 8 17 9 3 0 16 4 30 8 16 4
40 1 65 -10 22 -10 42 -18 45 -19 3 -1 30 -9 60 -18 30 -9 58 -17 62 -17 4 -1
23 -7 43 -16 19 -8 35 -12 35 -9 0 2 11 0 25 -5 14 -5 38 -12 53 -15 15 -3 32
-7 37 -9 6 -2 25 -7 43 -11 17 -4 32 -12 32 -18 0 -6 3 -8 6 -4 8 8 75 -28
112 -62 18 -15 29 -31 25 -34 -3 -4 -1 -7 5 -7 10 0 24 -29 19 -41 -1 -3 5
-14 13 -24 12 -14 15 -55 17 -193 1 -96 4 -181 7 -188 3 -7 1 -16 -5 -19 -5
-4 -6 -12 -2 -18 4 -7 8 -18 10 -26 3 -22 36 -50 63 -54 31 -5 82 12 74 24 -3
5 -1 9 5 9 15 0 21 65 24 275 2 105 7 204 11 220 18 80 91 186 135 198 15 4
20 -2 23 -24 3 -16 1 -29 -4 -29 -5 0 -4 -9 2 -20 8 -15 8 -20 -1 -20 -8 0 -8
-4 -1 -13 7 -8 7 -18 2 -27 -5 -9 -5 -19 2 -27 8 -10 7 -13 -3 -13 -10 0 -10
-3 -1 -12 7 -7 8 -17 2 -29 -7 -11 -7 -20 0 -24 5 -3 6 -15 0 -29 -4 -12 -5
-29 0 -36 4 -7 4 -25 0 -40 -4 -15 -4 -33 0 -40 5 -7 4 -24 -1 -37 -5 -12 -5
-23 0 -23 4 0 7 -12 5 -27 -7 -51 -7 -200 0 -211 3 -6 2 -13 -4 -17 -6 -4 -7
-12 -3 -18 4 -7 8 -20 8 -30 0 -10 6 -21 13 -26 8 -5 12 -12 10 -16 -1 -5 13
-14 32 -20 28 -10 40 -10 62 1 51 26 51 32 52 439 0 361 1 381 18 382 22 2
132 -103 123 -117 -3 -5 -2 -10 3 -10 11 0 32 -70 36 -125 1 -11 4 -24 7 -30
8 -15 4 -209 -5 -223 -4 -6 -4 -12 1 -12 4 0 8 -56 8 -123 0 -133 8 -164 50
-183 17 -9 27 -9 36 0 9 8 10 8 4 -2 -10 -18 50 12 62 30 9 14 21 228 13 228
-7 0 -3 369 4 387 3 7 2 13 -2 13 -7 0 -6 154 1 213 2 15 1 27 -2 27 -3 0 -5
79 -4 176 3 195 -3 221 -57 241 -23 9 -34 7 -58 -7 -16 -10 -34 -24 -38 -32
-5 -7 -9 -62 -10 -123 -2 -132 -4 -154 -11 -137 -2 6 -8 10 -13 7 -5 -3 -15 2
-24 11 -15 15 -54 30 -106 40 -13 3 -27 7 -30 10 -2 3 -5 43 -6 89 -2 95 -16
124 -67 141 -27 9 -37 8 -64 -10 -38 -25 -43 -43 -45 -154 -1 -80 -2 -82 -29
-94 -16 -7 -29 -17 -29 -21 0 -5 -4 -6 -10 -2 -16 10 -126 -109 -155 -169 -15
-31 -31 -58 -35 -61 -4 -2 -13 8 -21 23 -36 72 -178 171 -269 187 -18 3 -37 8
-42 11 -4 3 -16 7 -25 9 -86 21 -109 27 -119 35 -6 6 -13 7 -16 4 -3 -3 -39 7
-79 22 -41 14 -80 26 -86 27 -7 0 -13 4 -13 8 0 12 -51 37 -80 39 -44 4 -56 0
-85 -24 -16 -13 -44 -29 -64 -35 -20 -5 -74 -21 -121 -36 -47 -14 -96 -28
-110 -31 -33 -7 -54 -12 -60 -15 -3 -1 -9 -3 -15 -4 -5 -2 -13 -4 -17 -5 -5
-1 -11 -3 -15 -5 -12 -3 -44 -15 -88 -33 -39 -16 -135 -81 -135 -92 0 -3 -11
-18 -25 -34 -13 -16 -22 -32 -20 -36 3 -4 -1 -10 -9 -13 -9 -4 -20 9 -32 36
-10 23 -21 44 -25 47 -3 3 -10 12 -15 21 -16 28 -78 99 -87 99 -4 0 -13 5 -20
11 -7 6 -30 20 -52 33 l-40 22 -1 74 c-2 112 -3 115 -22 138 -28 32 -61 41
-93 25 -46 -23 -53 -39 -54 -130 -1 -91 -14 -116 -56 -108 -10 2 -19 0 -19 -6
0 -5 -9 -9 -20 -9 -11 0 -20 -4 -20 -10 0 -5 -6 -10 -14 -10 -7 0 -24 -9 -38
-19 l-25 -20 -1 112 c-1 156 0 152 -19 174 -25 27 -60 45 -68 34z"/>
<path d="M1590 1860 c0 -4 16 -34 35 -66 33 -54 37 -70 39 -134 l1 -24 -287 1
c-184 0 -285 -3 -282 -9 4 -6 -1 -6 -12 0 -11 5 -40 10 -66 9 -42 0 -48 -3
-48 -21 0 -21 2 -21 347 -21 l348 0 1 -52 c0 -29 -2 -53 -6 -53 -3 0 -15 8
-26 19 -31 28 -60 41 -93 41 -43 0 -111 -68 -111 -110 0 -56 70 -138 113 -131
4 0 7 -3 7 -8 0 -5 8 -8 18 -6 9 2 20 4 24 4 4 1 24 15 43 33 29 25 36 28 33
13 -3 -18 40 -51 51 -39 3 2 5 68 5 147 l1 142 105 0 105 0 1 -42 c1 -24 -3
-43 -9 -43 -7 0 -7 -4 1 -12 9 -9 17 -9 34 0 28 14 96 23 121 16 9 -3 22 -14
27 -25 10 -18 8 -19 -39 -15 -73 5 -99 -3 -142 -44 -37 -35 -38 -39 -28 -69
22 -62 106 -84 181 -46 23 11 30 11 45 -1 10 -7 21 -14 24 -14 9 0 11 154 3
196 -8 45 -57 68 -125 59 -33 -5 -50 -3 -50 4 -5 35 -4 36 86 38 50 0 96 2
103 2 6 1 12 9 12 20 0 18 -11 19 -197 19 -292 0 -263 -4 -263 37 0 83 -59
193 -105 193 -14 0 -25 -4 -25 -8z m35 -362 c17 -7 25 -19 25 -36 0 -29 -48
-98 -75 -108 -56 -20 -60 -20 -82 3 -25 24 -29 53 -11 86 31 59 87 81 143 55z
m471 -76 c20 -19 18 -28 -13 -50 -53 -37 -119 -48 -153 -27 -24 15 -4 51 46
82 25 16 103 13 120 -5z"/>
<path d="M967 1782 c5 -22 43 -62 43 -46 0 5 12 -9 27 -31 22 -32 28 -36 31
-21 2 10 0 21 -5 25 -4 3 -9 15 -11 26 -5 27 -31 52 -64 60 -23 6 -26 4 -21
-13z"/>
<path d="M1750 1797 c0 -20 26 -56 46 -66 13 -6 29 -22 36 -36 15 -34 30 -32
22 3 -8 32 -23 62 -39 79 -14 13 -65 29 -65 20z"/>
<path d="M1010 1556 c-7 -6 -3 -223 4 -234 3 -5 14 -12 24 -14 17 -5 18 4 18
121 -1 119 -2 126 -21 129 -12 2 -23 1 -25 -2z"/>
<path d="M1214 1539 c-36 -22 -44 -23 -44 -6 0 7 -11 14 -25 15 -24 2 -26 -2
-25 -36 0 -20 0 -45 0 -54 0 -10 0 -25 0 -33 0 -8 0 -21 0 -27 -2 -57 15 -97
41 -98 3 0 7 27 8 61 3 102 54 173 122 171 37 -1 60 -24 63 -65 4 -40 -11 -74
-47 -109 l-27 -27 30 -16 c17 -9 34 -14 38 -11 5 3 19 25 31 50 37 72 19 147
-46 187 -36 23 -77 22 -119 -2z"/>
<path d="M1799 1558 c-1 -2 -2 -54 -3 -116 -2 -103 0 -115 18 -127 10 -8 22
-12 25 -10 4 2 6 59 6 127 0 120 -1 123 -22 126 -13 2 -24 2 -24 0z"/>
<path d="M2200 1262 c-25 -9 -40 -36 -35 -66 5 -35 12 -43 47 -50 39 -7 63 24
59 76 -1 21 -49 48 -71 40z"/>
<path d="M22 1195 c-6 -8 -8 -376 -3 -431 1 -6 27 -12 64 -13 l62 -2 0 226 c0
146 -3 226 -10 227 -39 6 -107 2 -113 -7z"/>
<path d="M420 1119 c-20 -4 -47 -21 -63 -39 -32 -35 -53 -34 -63 5 -3 14 -9
25 -13 26 -3 0 -14 2 -23 4 -9 2 -18 -2 -20 -8 -3 -7 -4 -88 -4 -182 l1 -170
53 -3 c51 -3 52 -2 52 25 1 49 9 218 11 231 1 6 6 12 11 12 4 0 8 7 8 15 0 18
39 40 65 36 43 -6 69 -60 67 -136 -2 -43 -25 -162 -38 -194 -17 -41 -12 -61
14 -61 28 0 84 86 114 177 12 35 15 132 6 176 -6 24 -56 77 -74 77 -8 0 -14 3
-14 8 0 9 -46 10 -90 1z"/>
<path d="M783 1113 c-41 -14 -98 -62 -93 -78 1 -4 -4 -11 -10 -15 -6 -4 -14
-34 -17 -67 -6 -63 13 -122 48 -153 41 -36 56 -45 74 -48 61 -8 104 -7 134 2
39 12 91 57 91 79 0 28 -32 23 -67 -10 -40 -38 -94 -44 -129 -15 -66 55 -56
222 16 259 47 25 140 -13 140 -56 0 -10 3 -12 8 -5 4 6 15 13 25 17 17 7 17 9
-5 36 -13 17 -28 30 -34 30 -5 1 -15 6 -22 13 -23 23 -106 29 -159 11z"/>
<path d="M1201 1118 c-92 -25 -151 -101 -146 -189 3 -76 38 -129 107 -165 30
-15 148 -26 158 -15 3 3 23 16 45 27 22 12 48 33 59 47 21 29 47 117 38 132
-4 6 -7 17 -9 25 -14 95 -145 167 -252 138z m112 -60 c7 -7 18 -27 24 -44 12
-33 14 -132 4 -149 -3 -5 -6 -13 -6 -17 0 -3 -10 -18 -22 -32 -57 -65 -143 -9
-148 95 -5 110 36 176 103 166 18 -3 38 -12 45 -19z"/>
<path d="M1695 1122 c-28 -9 -58 -33 -76 -59 l-16 -23 -13 28 c-8 15 -14 31
-14 36 -1 14 -35 16 -43 3 -4 -6 -7 -89 -7 -184 l-1 -174 54 3 55 3 2 132 c1
101 5 138 17 156 22 34 51 39 74 13 20 -24 22 -36 24 -194 l2 -113 51 3 51 3
2 95 c3 180 16 220 69 220 26 0 34 -6 44 -30 16 -39 19 -110 8 -168 -5 -26
-11 -58 -12 -72 -2 -14 -11 -43 -20 -65 -17 -39 -11 -54 20 -55 17 0 55 49 82
109 32 69 33 71 39 154 8 110 -32 171 -119 181 -44 5 -78 -9 -105 -41 l-22
-27 -21 27 c-11 14 -38 31 -58 37 -40 11 -38 11 -67 2z"/>
<path d="M2565 1123 c-43 -9 -71 -25 -92 -54 l-21 -31 -27 40 c-24 36 -44 46
-60 30 -5 -5 -9 -288 -6 -344 1 -6 25 -12 55 -13 l54 -2 3 128 c4 115 6 131
27 161 13 18 27 30 32 27 5 -3 11 -1 15 5 9 14 65 -16 65 -35 0 -8 4 -15 8
-15 10 0 8 -128 -3 -185 -4 -22 -14 -60 -22 -83 -8 -24 -12 -50 -9 -58 8 -21
44 -17 51 6 3 11 10 20 15 20 13 0 66 116 75 165 18 86 6 154 -33 199 -26 29
-85 47 -127 39z"/>
<path d="M2909 1116 c-46 -16 -88 -54 -105 -95 -19 -46 -20 -128 -1 -171 15
-36 57 -90 57 -74 0 5 4 4 8 -2 10 -15 62 -31 97 -29 42 3 85 16 85 26 0 5 5
9 11 9 14 0 4 -62 -16 -100 -22 -43 -103 -70 -131 -43 -8 8 -14 12 -14 8 0
-11 -26 19 -33 37 -5 15 -10 16 -30 7 -21 -10 -23 -14 -13 -34 6 -13 18 -27
26 -30 8 -3 28 -13 43 -21 16 -9 47 -17 70 -19 46 -4 117 13 117 27 0 5 4 7 9
4 10 -6 71 76 71 96 0 8 3 18 7 22 4 3 7 89 7 191 1 168 -1 184 -17 189 -20 5
-43 -14 -52 -44 -3 -11 -10 -20 -14 -20 -13 0 -32 26 -24 33 3 4 -1 7 -10 7
-9 0 -17 4 -17 9 0 9 -35 21 -75 26 -12 2 -37 -3 -56 -9z m119 -63 c26 -22 40
-76 36 -133 -5 -62 -22 -99 -55 -116 -25 -13 -33 -13 -57 0 -15 8 -33 25 -40
38 -16 31 -22 113 -10 155 18 66 82 94 126 56z"/>
<path d="M2165 935 l0 -180 49 -3 c27 -2 52 1 55 6 5 8 6 291 2 347 -1 6 -24
11 -54 11 l-53 -1 1 -180z"/>
</g>
</svg>
